<svg version="1.1" id="Layer_1" xmlns="http://www.w3.org/2000/svg" xmlns:xlink="http://www.w3.org/1999/xlink" x="0px" y="0px"
	 width="100%" viewBox="0 0 624 218" enable-background="new 0 0 624 218" xml:space="preserve">
<path fill="#242021" opacity="1.000000" stroke="none" 
	d="
M441.000000,219.000000 
	C294.000031,219.000000 147.500031,219.000000 1.000039,219.000000 
	C1.000026,146.333359 1.000026,73.666718 1.000013,1.000059 
	C208.999939,1.000039 416.999878,1.000039 624.999878,1.000020 
	C624.999878,73.666603 624.999878,146.333206 624.999939,218.999908 
	C563.833313,219.000000 502.666656,219.000000 441.000000,219.000000 
M528.859314,166.795181 
	C530.045654,166.795181 531.231934,166.795181 532.922852,166.795181 
	C532.683655,162.076645 532.469116,157.845184 532.254639,153.613739 
	C531.843811,153.662979 531.432983,153.712234 531.022217,153.761490 
	C530.021179,157.543793 529.020142,161.326096 527.180054,165.159653 
	C526.171875,163.665543 524.697510,162.292725 524.269531,160.647644 
	C523.691406,158.425690 523.917725,155.994476 523.798889,153.653046 
	C523.173096,153.680511 522.547302,153.707962 521.921509,153.735413 
	C521.921509,156.434662 521.989685,159.136032 521.905945,161.832672 
	C521.771423,166.164154 523.644531,167.978683 528.859314,166.795181 
M463.904144,156.926773 
	C467.082581,154.159607 468.614410,155.249725 468.780762,159.096954 
	C468.894409,161.725388 468.802490,164.362701 468.802490,166.996063 
	C469.552124,167.023300 470.301758,167.050537 471.051392,167.077774 
	C471.051392,164.625946 470.668915,162.089584 471.185516,159.751923 
	C471.531311,158.187210 473.154053,156.904709 474.205383,155.495941 
	C474.795288,156.837372 475.736115,158.138168 475.897308,159.529266 
	C476.177185,161.944809 475.975128,164.416168 475.975128,166.864136 
	C476.485474,167.014145 476.995819,167.164154 477.506134,167.314163 
	C477.996582,166.218994 479.068756,165.004654 478.873199,164.050034 
	C478.161530,160.575806 477.845520,154.973129 475.874115,154.243713 
	C472.125793,152.856842 467.339417,154.275635 462.351929,153.825226 
	C459.556427,158.142807 461.230255,162.528702 461.316498,166.890335 
	C461.823029,166.913528 462.329559,166.936722 462.836060,166.959915 
	C462.978516,163.820923 463.120972,160.681915 463.904144,156.926773 
M116.293976,92.207169 
	C110.611046,92.207169 104.928116,92.207169 98.879013,92.207169 
	C104.725739,77.595108 102.708359,67.792068 93.092094,61.190113 
	C84.194641,55.081657 72.914848,55.923878 65.117210,63.278893 
	C56.154526,71.732819 56.055023,81.766251 64.833611,96.519890 
	C58.667202,102.662193 56.018143,109.801025 59.654678,118.213470 
	C62.868011,125.646919 68.911934,129.594635 76.878693,129.726593 
	C90.343361,129.949585 103.816376,129.668777 118.176521,129.743118 
	C130.990860,129.758453 143.806656,129.900970 156.619110,129.752975 
	C169.169388,129.608002 178.133011,119.618721 175.777542,107.857239 
	C174.925446,103.602516 171.978104,99.767410 169.858917,95.482162 
	C177.856705,85.134811 178.394287,73.990784 170.969223,65.071579 
	C164.315155,57.078495 152.499405,54.863510 143.385696,59.876431 
	C137.685760,63.011620 133.941223,67.736786 132.355865,73.994202 
	C130.750992,80.328598 132.068253,86.327583 136.373337,92.353996 
	C129.215836,92.353996 123.234085,92.353996 116.293976,92.207169 
M260.301697,105.368813 
	C260.299011,106.201576 260.321838,107.035332 260.289673,107.866959 
	C260.028259,114.624161 255.942078,118.977402 249.962891,118.881859 
	C244.149338,118.788963 240.020615,114.140846 239.907715,107.531036 
	C239.865051,105.033195 239.976410,102.529068 239.843887,100.037048 
	C239.234543,88.578873 231.906769,80.524117 220.574127,79.519867 
	C216.891388,79.193527 213.081360,80.303955 208.551819,80.851181 
	C208.551819,74.994263 208.551819,69.120262 208.551819,63.411442 
	C204.522034,63.411442 201.286713,63.411442 198.160339,63.411442 
	C198.160339,85.056107 198.160339,106.279602 198.160339,127.571274 
	C201.815430,127.571274 205.044098,127.571274 208.788712,127.571274 
	C208.788712,118.594795 208.714996,109.968651 208.813339,101.344460 
	C208.884735,95.082649 213.196548,90.411919 218.707001,90.338486 
	C224.307465,90.263855 228.571503,94.729324 228.897278,101.121666 
	C229.032806,103.781197 228.914520,106.453133 229.029221,109.114357 
	C229.463715,119.195068 236.143356,126.975677 246.011734,129.284592 
	C253.976135,131.148026 260.268524,127.954468 265.921967,122.992599 
	C279.412415,132.291763 285.552307,132.224731 298.346344,122.778786 
	C312.410797,132.449356 317.449005,132.363403 331.651581,122.210587 
	C345.908051,134.085693 359.036316,130.369339 367.049408,123.448807 
	C375.740601,115.942657 378.586761,102.604233 372.516663,93.054001 
	C369.553650,88.392281 364.845703,84.187889 359.969452,81.542587 
	C352.121307,77.285065 343.903564,79.274956 335.687958,84.531227 
	C335.687958,76.699219 335.687958,69.960480 335.687958,63.406067 
	C331.866058,63.406067 328.629791,63.406067 325.067780,63.406067 
	C325.067780,65.626404 325.068024,67.440063 325.067719,69.253716 
	C325.065399,81.912209 325.134827,94.571281 325.032074,107.228966 
	C324.975922,114.146332 320.613739,118.885010 314.648193,118.894165 
	C308.643097,118.903381 304.407837,114.240814 304.221741,107.245193 
	C304.111023,103.084099 304.196136,98.917778 304.194977,94.753807 
	C304.193787,90.486511 304.194733,86.219208 304.194733,81.395248 
	C301.709564,81.395248 299.892029,81.578140 298.124207,81.359276 
	C293.685333,80.809746 291.874207,82.276413 292.158234,87.079353 
	C292.570496,94.050270 292.342590,101.065361 292.230804,108.059097 
	C292.128387,114.466606 288.038391,118.780144 282.226074,118.883324 
	C276.403503,118.986687 271.971710,114.331673 271.896545,107.825806 
	C271.809967,100.331612 271.671356,92.828468 271.941833,85.343178 
	C272.112610,80.616997 269.041718,81.371712 266.314575,81.423904 
	C263.535217,81.477104 260.028137,80.285072 260.241791,85.416367 
	C260.504822,91.734627 260.303314,98.072235 260.301697,105.368813 
M517.112854,100.043549 
	C515.636658,111.349030 519.260193,120.438019 529.188049,126.395035 
	C544.062134,135.319977 563.938171,126.535431 566.176758,110.542763 
	C560.714111,110.396004 555.663147,109.259277 551.476440,115.295372 
	C548.163757,120.071220 541.883423,120.194641 536.370483,117.956116 
	C531.479004,115.969902 528.455994,112.329643 527.727173,106.271927 
	C541.080017,106.271927 553.946228,106.271927 566.769592,106.271927 
	C567.482483,93.383362 558.889404,82.115471 547.193176,80.038940 
	C532.995911,77.518379 521.393372,84.948212 517.112854,100.043549 
M460.515839,126.973770 
	C461.114929,126.702896 461.775269,126.111588 462.303253,126.212578 
	C466.040771,126.927460 469.751160,127.784286 473.866730,128.682388 
	C473.866730,112.284225 473.866730,97.181305 473.866730,81.192459 
	C465.357117,83.073036 457.354584,80.490997 449.170868,79.637917 
	C445.048126,79.208160 440.198059,80.852722 436.420563,82.918953 
	C424.287933,89.555267 420.066681,104.487106 426.311371,116.601395 
	C432.461945,128.532959 446.306122,132.949371 460.515839,126.973770 
M417.286804,81.074173 
	C416.655396,80.865395 416.032959,80.622780 415.391235,80.452858 
	C403.127197,77.205269 391.441345,82.030197 385.587524,92.749947 
	C380.293823,102.444054 382.447937,115.467674 390.590637,122.998123 
	C399.372314,131.119492 411.773773,132.113297 421.889954,125.429611 
	C420.120178,122.509949 418.349976,119.589600 416.607880,116.715591 
	C408.171814,120.344681 401.820709,119.452530 397.125488,114.162369 
	C393.044647,109.564453 392.059052,102.509560 395.465363,97.538818 
	C397.171204,95.049515 399.756622,92.086723 402.395233,91.548325 
	C407.143951,90.579369 412.232178,91.274605 417.765778,91.274605 
	C418.913269,89.355499 420.567047,86.589668 422.317261,83.662605 
	C420.625885,82.763519 419.318268,82.068436 417.286804,81.074173 
M513.592102,81.861389 
	C507.356750,78.823891 501.133209,78.933220 494.865448,81.817215 
	C494.007263,82.212090 492.922852,82.326431 491.966187,82.256393 
	C489.142700,82.049660 486.330780,81.685204 483.538788,81.385086 
	C483.538788,97.377724 483.538788,112.562599 483.538788,127.651642 
	C487.186615,127.651642 490.444183,127.651642 494.012695,127.651642 
	C494.012695,118.761353 494.035736,110.146400 494.003082,101.531654 
	C493.986481,97.159760 495.508972,93.279015 499.667755,91.913147 
	C503.026306,90.810089 506.888885,91.241745 511.445923,90.929718 
	C512.218689,89.823563 513.921997,87.760757 515.130371,85.440247 
	C515.522583,84.686958 514.619934,83.259331 513.592102,81.861389 
M348.244507,160.010056 
	C349.002136,157.244080 348.932770,153.665588 350.687683,151.879440 
	C354.468048,148.031769 357.818726,152.088654 361.438660,153.978912 
	C360.434509,151.670486 359.195831,149.726273 357.428345,148.855972 
	C353.723419,147.031693 350.227966,148.073456 347.568268,151.188614 
	C344.836365,154.388351 344.654297,161.031235 347.163483,164.373123 
	C349.750427,167.818542 353.293671,167.897385 357.094696,166.900024 
	C358.595917,166.506088 360.148010,166.306107 361.774109,165.999496 
	C361.774109,163.494888 361.774109,160.412338 361.774109,156.896698 
	C358.961029,157.106293 356.480621,157.291122 354.000214,157.475937 
	C354.004303,157.930023 354.008423,158.384109 354.012512,158.838181 
	C355.698120,159.073471 357.383698,159.308746 359.069275,159.544022 
	C359.391541,159.936066 359.713806,160.328094 360.036041,160.720139 
	C358.455200,162.158295 357.095215,164.297516 355.244904,164.880447 
	C351.963562,165.914185 349.420135,164.340714 348.244507,160.010056 
M517.707703,167.079605 
	C517.467468,163.762817 517.302979,160.438324 516.966309,157.131348 
	C516.603333,153.565521 513.853333,152.999908 511.109253,153.235626 
	C508.730377,153.439987 506.236084,154.207840 506.962158,158.257172 
	C508.352509,157.127762 509.212341,156.042374 510.318329,155.648895 
	C511.264893,155.312134 512.535828,155.630127 513.575134,155.947525 
	C513.949768,156.061935 514.362549,157.448074 514.255920,157.521133 
	C513.392761,158.112442 512.429749,158.577057 511.455109,158.977997 
	C511.010895,159.160736 510.460480,159.064545 509.977417,159.177139 
	C507.287537,159.804031 505.189331,161.038406 505.846008,164.269592 
	C506.520264,167.587112 509.026154,167.515656 511.692810,167.235687 
	C513.474365,167.048630 515.292419,167.209534 517.707703,167.079605 
M378.404358,158.217972 
	C377.865234,154.882950 375.685669,153.253204 372.528076,153.239197 
	C369.752197,153.226868 367.101318,154.542831 367.061279,157.539932 
	C367.022736,160.427521 367.623138,163.629181 369.011505,166.089905 
	C369.623871,167.175293 372.936890,167.173904 374.910278,166.886398 
	C376.047516,166.720718 377.345520,165.164062 377.870636,163.934357 
	C378.499359,162.462128 378.380737,160.670776 378.404358,158.217972 
M449.854004,167.421432 
	C454.919556,166.792648 454.919556,166.792648 455.601410,162.964111 
	C449.316345,166.455276 448.562317,166.303833 447.281708,160.898254 
	C450.469788,160.898254 453.560730,160.898254 456.692719,160.898254 
	C456.812683,156.961258 455.653748,153.755753 451.937988,153.550751 
	C449.794098,153.432480 446.734589,154.973251 445.481873,156.750412 
	C442.875732,160.447540 444.791199,164.991745 449.854004,167.421432 
M564.040100,163.716324 
	C563.831787,162.873932 563.509399,162.041092 563.437988,161.187256 
	C563.272827,159.211548 563.981567,156.491821 562.945740,155.429886 
	C561.653625,154.105225 558.330078,153.068787 557.024719,153.839828 
	C554.969055,155.054016 552.795898,157.813904 552.658813,160.041733 
	C552.521179,162.276505 554.261902,165.471375 556.179626,166.782471 
	C558.798096,168.572723 561.894043,167.470825 564.040100,163.716324 
M548.509888,155.683365 
	C548.407898,153.346237 548.305969,151.009094 548.203979,148.671967 
	C547.660217,148.689133 547.116394,148.706284 546.572632,148.723434 
	C546.326050,150.415344 546.079468,152.107254 546.027039,152.466980 
	C542.838013,153.762314 539.331665,154.107452 538.185669,155.933685 
	C536.847290,158.066422 536.633728,161.860870 537.588074,164.281464 
	C539.707092,169.656128 544.498596,166.366821 548.509705,166.608353 
	C548.509705,163.210373 548.509705,159.910568 548.509888,155.683365 
M406.743591,160.058975 
	C406.271240,161.809570 405.064697,163.819977 405.562714,165.227173 
	C405.949615,166.320465 408.430878,167.117325 410.038177,167.229324 
	C412.423798,167.395569 414.859680,166.840073 416.561249,166.665085 
	C416.400726,163.539963 416.264984,160.374832 416.068787,157.213470 
	C415.839508,153.519791 413.051239,153.061859 410.348938,153.264297 
	C407.969482,153.442520 405.427277,154.187973 406.201508,158.267960 
	C408.771973,156.145126 411.101379,153.220261 414.316284,157.984207 
	C411.743652,158.659134 409.635681,159.212158 406.743591,160.058975 
M382.448181,158.185135 
	C385.240448,159.893845 388.032715,161.602554 391.001953,163.419571 
	C387.746643,167.927246 385.081573,163.595795 381.704071,162.586411 
	C382.360443,164.132980 382.564423,165.593826 383.113190,165.737473 
	C385.527313,166.369400 388.076935,167.026672 390.501038,166.811996 
	C391.478943,166.725388 393.275177,163.748932 392.948486,163.261932 
	C391.822998,161.584137 389.999420,160.319748 388.293365,159.106659 
	C387.248596,158.363785 385.932495,158.002548 384.738281,157.469925 
	C384.915192,156.814041 385.092133,156.158173 385.269043,155.502289 
	C387.671906,155.966843 390.074738,156.431381 392.477570,156.895935 
	C391.143677,154.948181 389.109100,153.043365 387.525360,153.364182 
	C385.578796,153.758484 384.008545,156.010498 382.448181,158.185135 
M500.810364,166.513092 
	C506.933319,157.697601 495.066742,160.874893 493.676239,155.304413 
	C496.927216,155.978836 499.360168,156.483566 502.788788,157.194839 
	C501.409119,155.685089 500.711182,154.214813 499.777374,154.045471 
	C497.785553,153.684280 495.547028,153.605316 493.660919,154.203400 
	C492.743927,154.494141 491.553589,157.131287 491.950958,157.722626 
	C492.921021,159.166382 494.677368,160.146667 496.245361,161.103378 
	C497.504608,161.871719 498.951935,162.331848 500.780365,163.132080 
	C496.994965,167.292450 494.469208,164.260132 491.681458,162.608521 
	C492.934265,167.611954 494.095490,168.132935 500.810364,166.513092 
M420.966766,156.686035 
	C420.757477,158.617538 419.825592,160.878860 420.519073,162.398331 
	C421.416351,164.364243 423.385712,166.607681 425.314148,167.106979 
	C427.028259,167.550812 429.885468,166.309555 431.229156,164.870163 
	C433.804382,162.111542 433.117859,156.531677 430.374420,154.547836 
	C426.977448,152.091400 423.888062,152.741562 420.966766,156.686035 
M397.249115,162.151108 
	C397.179016,165.327057 397.556000,167.999924 400.873901,167.026596 
	C400.560333,163.100327 399.004669,159.136703 400.342712,156.918991 
	C402.633850,153.121658 399.124847,152.179031 398.953217,149.828857 
	C398.384766,149.862045 397.816345,149.895233 397.247894,149.928421 
	C397.247894,153.728485 397.247894,157.528549 397.249115,162.151108 
z"/>
<path fill="#8D8B8C" opacity="1.000000" stroke="none" 
	d="
M260.302124,104.885147 
	C260.303314,98.072235 260.504822,91.734627 260.241791,85.416367 
	C260.028137,80.285072 263.535217,81.477104 266.314575,81.423904 
	C269.041718,81.371712 272.112610,80.616997 271.941833,85.343178 
	C271.671356,92.828468 271.809967,100.331612 271.896545,107.825806 
	C271.971710,114.331673 276.403503,118.986687 282.226074,118.883324 
	C288.038391,118.780144 292.128387,114.466606 292.230804,108.059097 
	C292.342590,101.065361 292.570496,94.050270 292.158234,87.079353 
	C291.874207,82.276413 293.685333,80.809746 298.124207,81.359276 
	C299.892029,81.578140 301.709564,81.395248 304.194733,81.395248 
	C304.194733,86.219208 304.193787,90.486511 304.194977,94.753807 
	C304.196136,98.917778 304.111023,103.084099 304.221741,107.245193 
	C304.407837,114.240814 308.643097,118.903381 314.648193,118.894165 
	C320.613739,118.885010 324.975922,114.146332 325.032074,107.228966 
	C325.134827,94.571281 325.065399,81.912209 325.067719,69.253716 
	C325.068024,67.440063 325.067780,65.626404 325.067780,63.406067 
	C328.629791,63.406067 331.866058,63.406067 335.687958,63.406067 
	C335.687958,69.960480 335.687958,76.699219 335.687958,84.531227 
	C343.903564,79.274956 352.121307,77.285065 359.969452,81.542587 
	C364.845703,84.187889 369.553650,88.392281 372.516663,93.054001 
	C378.586761,102.604233 375.740601,115.942657 367.049408,123.448807 
	C359.036316,130.369339 345.908051,134.085693 331.651581,122.210587 
	C317.449005,132.363403 312.410797,132.449356 298.346344,122.778786 
	C285.552307,132.224731 279.412415,132.291763 265.921967,122.992599 
	C260.268524,127.954468 253.976135,131.148026 246.011734,129.284592 
	C236.143356,126.975677 229.463715,119.195068 229.029221,109.114357 
	C228.914520,106.453133 229.032806,103.781197 228.897278,101.121666 
	C228.571503,94.729324 224.307465,90.263855 218.707001,90.338486 
	C213.196548,90.411919 208.884735,95.082649 208.813339,101.344460 
	C208.714996,109.968651 208.788712,118.594795 208.788712,127.571274 
	C205.044098,127.571274 201.815430,127.571274 198.160339,127.571274 
	C198.160339,106.279602 198.160339,85.056107 198.160339,63.411442 
	C201.286713,63.411442 204.522034,63.411442 208.551819,63.411442 
	C208.551819,69.120262 208.551819,74.994263 208.551819,80.851181 
	C213.081360,80.303955 216.891388,79.193527 220.574127,79.519867 
	C231.906769,80.524117 239.234543,88.578873 239.843887,100.037048 
	C239.976410,102.529068 239.865051,105.033195 239.907715,107.531036 
	C240.020615,114.140846 244.149338,118.788963 249.962891,118.881859 
	C255.942078,118.977402 260.028259,114.624161 260.289673,107.866959 
	C260.321838,107.035332 260.299011,106.201576 260.302124,104.885147 
M359.746002,93.679955 
	C358.768707,93.053452 357.835663,92.340294 356.806732,91.814911 
	C351.346039,89.026642 346.096069,89.676331 341.412323,93.402824 
	C336.711365,97.143036 334.907196,102.264786 336.387939,108.095619 
	C337.864014,113.908287 341.871246,117.498726 347.739136,118.770920 
	C353.422028,120.002991 359.620056,117.101669 362.660065,111.998459 
	C366.202515,106.051857 365.496246,100.724037 359.746002,93.679955 
z"/>
<path fill="#FAF9F9" opacity="1.000000" stroke="none" 
	d="
M117.252342,92.353996 
	C123.234085,92.353996 129.215836,92.353996 136.373337,92.353996 
	C132.068253,86.327583 130.750992,80.328598 132.355865,73.994202 
	C133.941223,67.736786 137.685760,63.011620 143.385696,59.876431 
	C152.499405,54.863510 164.315155,57.078495 170.969223,65.071579 
	C178.394287,73.990784 177.856705,85.134811 169.858917,95.482162 
	C171.978104,99.767410 174.925446,103.602516 175.777542,107.857239 
	C178.133011,119.618721 169.169388,129.608002 156.619110,129.752975 
	C143.806656,129.900970 130.990860,129.758453 117.722229,129.251923 
	C117.239960,125.943779 117.211983,123.126839 117.635262,120.232735 
	C131.059097,120.136917 144.032135,120.174698 157.004074,120.073357 
	C162.618439,120.029503 166.363815,116.460281 166.541595,111.345222 
	C166.735168,105.776001 162.642929,101.956497 156.099777,101.883003 
	C143.132751,101.737358 130.164337,101.715805 117.213272,101.220734 
	C117.237488,97.983673 117.244919,95.168831 117.252342,92.353996 
M157.663574,91.739296 
	C158.980011,91.041214 160.445145,90.528145 161.585876,89.611420 
	C165.487335,86.476036 167.435303,82.420723 166.496933,77.351883 
	C165.531631,72.137695 162.376923,68.573074 157.325058,67.220627 
	C152.305206,65.876747 147.754929,67.209564 144.259995,71.262932 
	C140.812042,75.261810 140.147675,80.599480 142.636337,85.204994 
	C145.705109,90.883995 150.610260,92.886017 157.663574,91.739296 
z"/>
<path fill="#8E8C8D" opacity="1.000000" stroke="none" 
	d="
M117.184006,120.309906 
	C117.211983,123.126839 117.239960,125.943779 117.276909,129.180252 
	C103.816376,129.668777 90.343361,129.949585 76.878693,129.726593 
	C68.911934,129.594635 62.868011,125.646919 59.654678,118.213470 
	C56.018143,109.801025 58.667202,102.662193 64.833611,96.519890 
	C56.055023,81.766251 56.154526,71.732819 65.117210,63.278893 
	C72.914848,55.923878 84.194641,55.081657 93.092094,61.190113 
	C102.708359,67.792068 104.725739,77.595108 98.879013,92.207169 
	C104.928116,92.207169 110.611046,92.207169 116.773163,92.280579 
	C117.244919,95.168831 117.237488,97.983673 116.737839,101.298874 
	C103.787521,101.822922 91.329185,101.808807 78.871407,101.884987 
	C71.828979,101.928040 67.783272,105.462234 67.907944,111.265396 
	C68.028374,116.871017 71.939331,120.047493 78.825081,120.091621 
	C91.611336,120.173569 104.397690,120.238113 117.184006,120.309906 
M93.059883,79.493416 
	C91.985359,69.371696 83.061310,63.822132 74.730728,68.095131 
	C69.330887,70.864868 66.632187,76.813515 68.077911,82.759674 
	C69.450462,88.404839 75.038216,92.412125 81.114296,92.108765 
	C87.427841,91.793564 91.712090,87.560738 93.059883,79.493416 
z"/>
<path fill="#FAFAFA" opacity="1.000000" stroke="none" 
	d="
M517.196960,99.618530 
	C521.393372,84.948212 532.995911,77.518379 547.193176,80.038940 
	C558.889404,82.115471 567.482483,93.383362 566.769592,106.271927 
	C553.946228,106.271927 541.080017,106.271927 527.727173,106.271927 
	C528.455994,112.329643 531.479004,115.969902 536.370483,117.956116 
	C541.883423,120.194641 548.163757,120.071220 551.476440,115.295372 
	C555.663147,109.259277 560.714111,110.396004 566.176758,110.542763 
	C563.938171,126.535431 544.062134,135.319977 529.188049,126.395035 
	C519.260193,120.438019 515.636658,111.349030 517.196960,99.618530 
M533.501709,91.851883 
	C531.972778,93.673615 530.443848,95.495346 528.455322,97.864716 
	C537.849670,97.864716 546.189758,97.864716 554.655029,97.864716 
	C550.339844,88.832535 543.121704,86.627235 533.501709,91.851883 
z"/>
<path fill="#FBFBFB" opacity="1.000000" stroke="none" 
	d="
M460.152649,127.127487 
	C446.306122,132.949371 432.461945,128.532959 426.311371,116.601395 
	C420.066681,104.487106 424.287933,89.555267 436.420563,82.918953 
	C440.198059,80.852722 445.048126,79.208160 449.170868,79.637917 
	C457.354584,80.490997 465.357117,83.073036 473.866730,81.192459 
	C473.866730,97.181305 473.866730,112.284225 473.866730,128.682388 
	C469.751160,127.784286 466.040771,126.927460 462.303253,126.212578 
	C461.775269,126.111588 461.114929,126.702896 460.152649,127.127487 
M437.300995,95.927849 
	C432.334808,104.136116 434.032593,112.564041 441.547760,117.009293 
	C448.526978,121.137520 457.372345,118.825500 461.426422,111.813362 
	C464.873352,105.851349 463.304871,97.722603 457.869843,93.381142 
	C451.621796,88.390282 444.370636,89.104286 437.300995,95.927849 
z"/>
<path fill="#F9F9F9" opacity="1.000000" stroke="none" 
	d="
M417.648743,81.223763 
	C419.318268,82.068436 420.625885,82.763519 422.317261,83.662605 
	C420.567047,86.589668 418.913269,89.355499 417.765778,91.274605 
	C412.232178,91.274605 407.143951,90.579369 402.395233,91.548325 
	C399.756622,92.086723 397.171204,95.049515 395.465363,97.538818 
	C392.059052,102.509560 393.044647,109.564453 397.125488,114.162369 
	C401.820709,119.452530 408.171814,120.344681 416.607880,116.715591 
	C418.349976,119.589600 420.120178,122.509949 421.889954,125.429611 
	C411.773773,132.113297 399.372314,131.119492 390.590637,122.998123 
	C382.447937,115.467674 380.293823,102.444054 385.587524,92.749947 
	C391.441345,82.030197 403.127197,77.205269 415.391235,80.452858 
	C416.032959,80.622780 416.655396,80.865395 417.648743,81.223763 
z"/>
<path fill="#F9F9F9" opacity="1.000000" stroke="none" 
	d="
M513.950806,82.000763 
	C514.619934,83.259331 515.522583,84.686958 515.130371,85.440247 
	C513.921997,87.760757 512.218689,89.823563 511.445923,90.929718 
	C506.888885,91.241745 503.026306,90.810089 499.667755,91.913147 
	C495.508972,93.279015 493.986481,97.159760 494.003082,101.531654 
	C494.035736,110.146400 494.012695,118.761353 494.012695,127.651642 
	C490.444183,127.651642 487.186615,127.651642 483.538788,127.651642 
	C483.538788,112.562599 483.538788,97.377724 483.538788,81.385086 
	C486.330780,81.685204 489.142700,82.049660 491.966187,82.256393 
	C492.922852,82.326431 494.007263,82.212090 494.865448,81.817215 
	C501.133209,78.933220 507.356750,78.823891 513.950806,82.000763 
z"/>
<path fill="#E6E5E5" opacity="1.000000" stroke="none" 
	d="
M348.361908,160.399933 
	C349.420135,164.340714 351.963562,165.914185 355.244904,164.880447 
	C357.095215,164.297516 358.455200,162.158295 360.036041,160.720139 
	C359.713806,160.328094 359.391541,159.936066 359.069275,159.544022 
	C357.383698,159.308746 355.698120,159.073471 354.012512,158.838181 
	C354.008423,158.384109 354.004303,157.930023 354.000214,157.475937 
	C356.480621,157.291122 358.961029,157.106293 361.774109,156.896698 
	C361.774109,160.412338 361.774109,163.494888 361.774109,165.999496 
	C360.148010,166.306107 358.595917,166.506088 357.094696,166.900024 
	C353.293671,167.897385 349.750427,167.818542 347.163483,164.373123 
	C344.654297,161.031235 344.836365,154.388351 347.568268,151.188614 
	C350.227966,148.073456 353.723419,147.031693 357.428345,148.855972 
	C359.195831,149.726273 360.434509,151.670486 361.438660,153.978912 
	C357.818726,152.088654 354.468048,148.031769 350.687683,151.879440 
	C348.932770,153.665588 349.002136,157.244080 348.361908,160.399933 
z"/>
<path fill="#DEDEDE" opacity="1.000000" stroke="none" 
	d="
M517.400940,167.147156 
	C515.292419,167.209534 513.474365,167.048630 511.692810,167.235687 
	C509.026154,167.515656 506.520264,167.587112 505.846008,164.269592 
	C505.189331,161.038406 507.287537,159.804031 509.977417,159.177139 
	C510.460480,159.064545 511.010895,159.160736 511.455109,158.977997 
	C512.429749,158.577057 513.392761,158.112442 514.255920,157.521133 
	C514.362549,157.448074 513.949768,156.061935 513.575134,155.947525 
	C512.535828,155.630127 511.264893,155.312134 510.318329,155.648895 
	C509.212341,156.042374 508.352509,157.127762 506.962158,158.257172 
	C506.236084,154.207840 508.730377,153.439987 511.109253,153.235626 
	C513.853333,152.999908 516.603333,153.565521 516.966309,157.131348 
	C517.302979,160.438324 517.467468,163.762817 517.400940,167.147156 
z"/>
<path fill="#E3E3E3" opacity="1.000000" stroke="none" 
	d="
M378.495056,158.617798 
	C378.380737,160.670776 378.499359,162.462128 377.870636,163.934357 
	C377.345520,165.164062 376.047516,166.720718 374.910278,166.886398 
	C372.936890,167.173904 369.623871,167.175293 369.011505,166.089905 
	C367.623138,163.629181 367.022736,160.427521 367.061279,157.539932 
	C367.101318,154.542831 369.752197,153.226868 372.528076,153.239197 
	C375.685669,153.253204 377.865234,154.882950 378.495056,158.617798 
M369.113617,162.208923 
	C370.374634,163.228806 371.767426,165.196335 372.865356,165.043640 
	C374.461517,164.821625 375.845093,163.070969 377.319305,161.972183 
	C377.099945,161.641159 376.880585,161.310150 376.661224,160.979141 
	C374.195099,161.103851 371.728943,161.228577 369.113617,162.208923 
z"/>
<path fill="#E3E3E3" opacity="1.000000" stroke="none" 
	d="
M449.492889,167.343781 
	C444.791199,164.991745 442.875732,160.447540 445.481873,156.750412 
	C446.734589,154.973251 449.794098,153.432480 451.937988,153.550751 
	C455.653748,153.755753 456.812683,156.961258 456.692719,160.898254 
	C453.560730,160.898254 450.469788,160.898254 447.281708,160.898254 
	C448.562317,166.303833 449.316345,166.455276 455.601410,162.964111 
	C454.919556,166.792648 454.919556,166.792648 449.492889,167.343781 
z"/>
<path fill="#E3E3E3" opacity="1.000000" stroke="none" 
	d="
M563.937744,164.136139 
	C561.894043,167.470825 558.798096,168.572723 556.179626,166.782471 
	C554.261902,165.471375 552.521179,162.276505 552.658813,160.041733 
	C552.795898,157.813904 554.969055,155.054016 557.024719,153.839828 
	C558.330078,153.068787 561.653625,154.105225 562.945740,155.429886 
	C563.981567,156.491821 563.272827,159.211548 563.437988,161.187256 
	C563.509399,162.041092 563.831787,162.873932 563.937744,164.136139 
M563.106750,162.094894 
	C560.500305,161.675262 557.893921,161.255646 554.750916,160.749634 
	C557.045044,166.223541 558.583374,166.443054 563.106750,162.094894 
z"/>
<path fill="#E6E5E5" opacity="1.000000" stroke="none" 
	d="
M548.509766,156.147064 
	C548.509705,159.910568 548.509705,163.210373 548.509705,166.608353 
	C544.498596,166.366821 539.707092,169.656128 537.588074,164.281464 
	C536.633728,161.860870 536.847290,158.066422 538.185669,155.933685 
	C539.331665,154.107452 542.838013,153.762314 546.027039,152.466980 
	C546.079468,152.107254 546.326050,150.415344 546.572632,148.723434 
	C547.116394,148.706284 547.660217,148.689133 548.203979,148.671967 
	C548.305969,151.009094 548.407898,153.346237 548.509766,156.147064 
M546.182617,159.573364 
	C545.229004,158.215195 544.478333,156.586960 543.216675,155.638641 
	C542.746033,155.284912 540.280640,156.335724 540.114136,157.063721 
	C539.637329,159.149536 539.536987,161.472946 540.000366,163.543686 
	C540.173035,164.315323 543.060852,165.400330 543.426514,165.039825 
	C544.659668,163.824234 545.316040,162.023560 546.182617,159.573364 
z"/>
<path fill="#E6E5E5" opacity="1.000000" stroke="none" 
	d="
M407.135620,159.912079 
	C409.635681,159.212158 411.743652,158.659134 414.316284,157.984207 
	C411.101379,153.220261 408.771973,156.145126 406.201508,158.267960 
	C405.427277,154.187973 407.969482,153.442520 410.348938,153.264297 
	C413.051239,153.061859 415.839508,153.519791 416.068787,157.213470 
	C416.264984,160.374832 416.400726,163.539963 416.561249,166.665085 
	C414.859680,166.840073 412.423798,167.395569 410.038177,167.229324 
	C408.430878,167.117325 405.949615,166.320465 405.562714,165.227173 
	C405.064697,163.819977 406.271240,161.809570 407.135620,159.912079 
M409.167664,161.209991 
	C408.635193,162.205826 408.102722,163.201660 407.570221,164.197479 
	C408.559631,164.578308 409.829071,165.537720 410.481415,165.222031 
	C411.934601,164.518753 413.079285,163.178131 414.349701,162.097214 
	C414.119049,161.748444 413.888428,161.399673 413.657776,161.050903 
	C412.425323,161.050903 411.192902,161.050903 409.167664,161.209991 
z"/>
<path fill="#E3E3E3" opacity="1.000000" stroke="none" 
	d="
M382.361877,157.822327 
	C384.008545,156.010498 385.578796,153.758484 387.525360,153.364182 
	C389.109100,153.043365 391.143677,154.948181 392.477570,156.895935 
	C390.074738,156.431381 387.671906,155.966843 385.269043,155.502289 
	C385.092133,156.158173 384.915192,156.814041 384.738281,157.469925 
	C385.932495,158.002548 387.248596,158.363785 388.293365,159.106659 
	C389.999420,160.319748 391.822998,161.584137 392.948486,163.261932 
	C393.275177,163.748932 391.478943,166.725388 390.501038,166.811996 
	C388.076935,167.026672 385.527313,166.369400 383.113190,165.737473 
	C382.564423,165.593826 382.360443,164.132980 381.704071,162.586411 
	C385.081573,163.595795 387.746643,167.927246 391.001953,163.419571 
	C388.032715,161.602554 385.240448,159.893845 382.361877,157.822327 
z"/>
<path fill="#F4F3F3" opacity="1.000000" stroke="none" 
	d="
M462.984131,154.529297 
	C467.339417,154.275635 472.125793,152.856842 475.874115,154.243713 
	C477.845520,154.973129 478.161530,160.575806 478.873199,164.050034 
	C479.068756,165.004654 477.996582,166.218994 477.506134,167.314163 
	C476.995819,167.164154 476.485474,167.014145 475.975128,166.864136 
	C475.975128,164.416168 476.177185,161.944809 475.897308,159.529266 
	C475.736115,158.138168 474.795288,156.837372 474.205383,155.495941 
	C473.154053,156.904709 471.531311,158.187210 471.185516,159.751923 
	C470.668915,162.089584 471.051392,164.625946 471.051392,167.077774 
	C470.301758,167.050537 469.552124,167.023300 468.802490,166.996063 
	C468.802490,164.362701 468.894409,161.725388 468.780762,159.096954 
	C468.614410,155.249725 467.082581,154.159607 463.517517,156.861725 
	C463.081970,156.040878 463.033051,155.285080 462.984131,154.529297 
z"/>
<path fill="#E3E3E3" opacity="1.000000" stroke="none" 
	d="
M500.504456,166.705917 
	C494.095490,168.132935 492.934265,167.611954 491.681458,162.608521 
	C494.469208,164.260132 496.994965,167.292450 500.780365,163.132080 
	C498.951935,162.331848 497.504608,161.871719 496.245361,161.103378 
	C494.677368,160.146667 492.921021,159.166382 491.950958,157.722626 
	C491.553589,157.131287 492.743927,154.494141 493.660919,154.203400 
	C495.547028,153.605316 497.785553,153.684280 499.777374,154.045471 
	C500.711182,154.214813 501.409119,155.685089 502.788788,157.194839 
	C499.360168,156.483566 496.927216,155.978836 493.676239,155.304413 
	C495.066742,160.874893 506.933319,157.697601 500.504456,166.705917 
z"/>
<path fill="#E1E0E0" opacity="1.000000" stroke="none" 
	d="
M421.132111,156.333221 
	C423.888062,152.741562 426.977448,152.091400 430.374420,154.547836 
	C433.117859,156.531677 433.804382,162.111542 431.229156,164.870163 
	C429.885468,166.309555 427.028259,167.550812 425.314148,167.106979 
	C423.385712,166.607681 421.416351,164.364243 420.519073,162.398331 
	C419.825592,160.878860 420.757477,158.617538 421.132111,156.333221 
M430.040588,158.882095 
	C428.732391,157.677002 427.576294,156.084641 426.032928,155.478561 
	C425.498291,155.268616 423.402863,157.355011 423.073273,158.658737 
	C422.433533,161.188995 422.033173,164.461487 425.619110,165.138000 
	C429.736938,165.914871 430.008209,162.700958 430.040588,158.882095 
z"/>
<path fill="#D3D2D2" opacity="1.000000" stroke="none" 
	d="
M397.248505,161.739868 
	C397.247894,157.528549 397.247894,153.728485 397.247894,149.928421 
	C397.816345,149.895233 398.384766,149.862045 398.953217,149.828857 
	C399.124847,152.179031 402.633850,153.121658 400.342712,156.918991 
	C399.004669,159.136703 400.560333,163.100327 400.873901,167.026596 
	C397.556000,167.999924 397.179016,165.327057 397.248505,161.739868 
z"/>
<path fill="#CECDCD" opacity="1.000000" stroke="none" 
	d="
M528.019165,165.108398 
	C529.020142,161.326096 530.021179,157.543793 531.022217,153.761490 
	C531.432983,153.712234 531.843811,153.662979 532.254639,153.613739 
	C532.469116,157.845184 532.683655,162.076645 532.922852,166.795181 
	C531.231934,166.795181 530.045654,166.795181 528.442627,166.553467 
	C528.023682,165.910629 528.021423,165.509506 528.019165,165.108398 
z"/>
<path fill="#F4F3F3" opacity="1.000000" stroke="none" 
	d="
M527.599609,165.134033 
	C528.021423,165.509506 528.023682,165.910629 528.001770,166.611618 
	C523.644531,167.978683 521.771423,166.164154 521.905945,161.832672 
	C521.989685,159.136032 521.921509,156.434662 521.921509,153.735413 
	C522.547302,153.707962 523.173096,153.680511 523.798889,153.653046 
	C523.917725,155.994476 523.691406,158.425690 524.269531,160.647644 
	C524.697510,162.292725 526.171875,163.665543 527.599609,165.134033 
z"/>
<path fill="#FBFBFB" opacity="1.000000" stroke="none" 
	d="
M462.668030,154.177261 
	C463.033051,155.285080 463.081970,156.040878 463.197144,157.169800 
	C463.120972,160.681915 462.978516,163.820923 462.836060,166.959915 
	C462.329559,166.936722 461.823029,166.913528 461.316498,166.890335 
	C461.230255,162.528702 459.556427,158.142807 462.668030,154.177261 
z"/>
<path fill="#252122" opacity="1.000000" stroke="none" 
	d="
M360.021942,93.929054 
	C365.496246,100.724037 366.202515,106.051857 362.660065,111.998459 
	C359.620056,117.101669 353.422028,120.002991 347.739136,118.770920 
	C341.871246,117.498726 337.864014,113.908287 336.387939,108.095619 
	C334.907196,102.264786 336.711365,97.143036 341.412323,93.402824 
	C346.096069,89.676331 351.346039,89.026642 356.806732,91.814911 
	C357.835663,92.340294 358.768707,93.053452 360.021942,93.929054 
z"/>
<path fill="#242021" opacity="1.000000" stroke="none" 
	d="
M117.635262,120.232735 
	C104.397690,120.238113 91.611336,120.173569 78.825081,120.091621 
	C71.939331,120.047493 68.028374,116.871017 67.907944,111.265396 
	C67.783272,105.462234 71.828979,101.928040 78.871407,101.884987 
	C91.329185,101.808807 103.787521,101.822922 116.721054,101.721107 
	C130.164337,101.715805 143.132751,101.737358 156.099777,101.883003 
	C162.642929,101.956497 166.735168,105.776001 166.541595,111.345222 
	C166.363815,116.460281 162.618439,120.029503 157.004074,120.073357 
	C144.032135,120.174698 131.059097,120.136917 117.635262,120.232735 
z"/>
<path fill="#272324" opacity="1.000000" stroke="none" 
	d="
M157.264969,91.828232 
	C150.610260,92.886017 145.705109,90.883995 142.636337,85.204994 
	C140.147675,80.599480 140.812042,75.261810 144.259995,71.262932 
	C147.754929,67.209564 152.305206,65.876747 157.325058,67.220627 
	C162.376923,68.573074 165.531631,72.137695 166.496933,77.351883 
	C167.435303,82.420723 165.487335,86.476036 161.585876,89.611420 
	C160.445145,90.528145 158.980011,91.041214 157.264969,91.828232 
z"/>
<path fill="#252122" opacity="1.000000" stroke="none" 
	d="
M93.054977,79.904846 
	C91.712090,87.560738 87.427841,91.793564 81.114296,92.108765 
	C75.038216,92.412125 69.450462,88.404839 68.077911,82.759674 
	C66.632187,76.813515 69.330887,70.864868 74.730728,68.095131 
	C83.061310,63.822132 91.985359,69.371696 93.054977,79.904846 
z"/>
<path fill="#272324" opacity="1.000000" stroke="none" 
	d="
M533.788940,91.600136 
	C543.121704,86.627235 550.339844,88.832535 554.655029,97.864716 
	C546.189758,97.864716 537.849670,97.864716 528.455322,97.864716 
	C530.443848,95.495346 531.972778,93.673615 533.788940,91.600136 
z"/>
<path fill="#272324" opacity="1.000000" stroke="none" 
	d="
M437.544250,95.643234 
	C444.370636,89.104286 451.621796,88.390282 457.869843,93.381142 
	C463.304871,97.722603 464.873352,105.851349 461.426422,111.813362 
	C457.372345,118.825500 448.526978,121.137520 441.547760,117.009293 
	C434.032593,112.564041 432.334808,104.136116 437.544250,95.643234 
z"/>
<path fill="#242021" opacity="1.000000" stroke="none" 
	d="
M369.188232,161.781097 
	C371.728943,161.228577 374.195099,161.103851 376.661224,160.979141 
	C376.880585,161.310150 377.099945,161.641159 377.319305,161.972183 
	C375.845093,163.070969 374.461517,164.821625 372.865356,165.043640 
	C371.767426,165.196335 370.374634,163.228806 369.188232,161.781097 
z"/>
<path fill="#242021" opacity="1.000000" stroke="none" 
	d="
M562.771118,162.461655 
	C558.583374,166.443054 557.045044,166.223541 554.750916,160.749634 
	C557.893921,161.255646 560.500305,161.675262 562.771118,162.461655 
z"/>
<path fill="#2A2627" opacity="1.000000" stroke="none" 
	d="
M546.187805,160.009995 
	C545.316040,162.023560 544.659668,163.824234 543.426514,165.039825 
	C543.060852,165.400330 540.173035,164.315323 540.000366,163.543686 
	C539.536987,161.472946 539.637329,159.149536 540.114136,157.063721 
	C540.280640,156.335724 542.746033,155.284912 543.216675,155.638641 
	C544.478333,156.586960 545.229004,158.215195 546.187805,160.009995 
z"/>
<path fill="#3E3B3B" opacity="1.000000" stroke="none" 
	d="
M409.564056,161.130447 
	C411.192902,161.050903 412.425323,161.050903 413.657776,161.050903 
	C413.888428,161.399673 414.119049,161.748444 414.349701,162.097214 
	C413.079285,163.178131 411.934601,164.518753 410.481415,165.222031 
	C409.829071,165.537720 408.559631,164.578308 407.570251,164.197479 
	C408.102722,163.201660 408.635193,162.205826 409.564056,161.130447 
z"/>
<path fill="#2A2627" opacity="1.000000" stroke="none" 
	d="
M430.059998,159.293915 
	C430.008209,162.700958 429.736938,165.914871 425.619110,165.138000 
	C422.033173,164.461487 422.433533,161.188995 423.073273,158.658737 
	C423.402863,157.355011 425.498291,155.268616 426.032928,155.478561 
	C427.576294,156.084641 428.732391,157.677002 430.059998,159.293915 
z"/>
</svg>